<svg height="400" viewBox="0 0 1200 400" width="1200" xmlns="http://www.w3.org/2000/svg"><path d="m0 0h1200v400h-1200z" fill="#0d1117"/><circle cx="950" cy="200" fill="none" r="150" stroke="#fff" stroke-opacity=".05"/><circle cx="950" cy="200" fill="none" r="100" stroke="#fff" stroke-opacity=".06"/><g fill="#fff" fill-opacity=".035"><circle cx="40" cy="40" r="1.5"/><circle cx="80" cy="40" r="1.5"/><circle cx="120" cy="40" r="1.5"/><circle cx="40" cy="80" r="1.5"/><circle cx="80" cy="80" r="1.5"/><circle cx="120" cy="80" r="1.5"/><circle cx="40" cy="360" r="1.5"/><circle cx="80" cy="360" r="1.5"/><circle cx="120" cy="360" r="1.5"/><circle cx="40" cy="320" r="1.5"/><circle cx="80" cy="320" r="1.5"/><circle cx="120" cy="320" r="1.5"/></g><g fill="none" stroke-opacity=".35" stroke-width="1.5"><path d="m220 90c160 0 200 50 326 100" stroke="#58a6ff"/><path d="m140 170c180 0 280 5 408 25" stroke="#39d2c0"/><path d="m250 250c130 0 190-30 300-45" stroke="#e3b341"/><path d="m230 330c130 0 210-70 318-118" stroke="#ff7b72"/></g><rect fill="#58a6ff" height="40" rx="20" width="150" x="70" y="70"/><text fill="#0d1117" font-family="ui-sans-serif, Helvetica, Arial, sans-serif" font-size="15" font-weight="600" text-anchor="middle" x="145" y="95">microsoft</text><rect fill="#39d2c0" height="40" rx="20" width="100" x="40" y="150"/><text fill="#0d1117" font-family="ui-sans-serif, Helvetica, Arial, sans-serif" font-size="15" font-weight="600" text-anchor="middle" x="90" y="175">MSFT</text><rect fill="#e3b341" height="40" rx="20" width="190" x="60" y="230"/><text fill="#0d1117" font-family="ui-sans-serif, Helvetica, Arial, sans-serif" font-size="15" font-weight="600" text-anchor="middle" x="155" y="255">Microsoft Corp.</text><rect fill="#ff7b72" height="40" rx="20" width="120" x="110" y="310"/><text fill="#0d1117" font-family="ui-sans-serif, Helvetica, Arial, sans-serif" font-size="15" font-weight="600" text-anchor="middle" x="170" y="335">MS-corp</text><circle cx="580" cy="200" fill="#f0f6fc" r="34"/><text fill="#0d1117" font-family="ui-sans-serif, Helvetica, Arial, sans-serif" font-size="28" font-weight="700" text-anchor="middle" x="580" y="211">N</text><text fill="#f0f6fc" font-family="ui-sans-serif, Helvetica, Arial, sans-serif" font-size="72" font-weight="700" letter-spacing="6" x="660" y="215">NOMOS</text><text fill="#8b949e" font-family="ui-sans-serif, Helvetica, Arial, sans-serif" font-size="19" x="663" y="252">one canonical identity, every source</text></svg>
